PathFileType	3	(X/Y/Z)	D:\minhoCalibration\240510\subject2_KPNP\preferred\preferred01.trc
DataRate	CameraRate	NumFrames	NumMarkers	Units	OrigDataRate	OrigDataStartFrame	OrigNumFrames
200.0	200.0	15	10	mm	200.0	313	233	
Frame#	Time	Left_Ankle_Outer1			Left_Ankle_Inner1			Left_Knee_Outer1			Left_Knee_Inner1			Left_Wrist1			Right_Wrist1			Right_Knee_Inner1			Right_Knee_Outer1			Right_Ankle_Inner1			Right_Ankle_Outer1			
		X1	Y1	Z1	X2	Y2	Z2	X3	Y3	Z3	X4	Y4	Z4	X5	Y5	Z5	X6	Y6	Z6	X7	Y7	Z7	X8	Y8	Z8	X9	Y9	Z9	X10	Y10	Z10	
313	1.555	-436.11206	87.329956	-814.18976	-453.86972	89.268387	-759.63892	-222.95724	498.38596	-758.3468	-294.21057	481.58044	-687.99463	-326.83527	931.25543	-856.05511	-662.01294	975.33252	-872.56714	-779.72528	473.75714	-852.99054	-839.44611	530.16968	-903.07935	-728.52466	179.09598	-1134.3892	-803.8092	215.99573	-1183.4482
314	1.56	-435.73502	87.222023	-814.58038	-453.66934	89.397179	-759.69873	-221.49651	496.89346	-759.15845	-292.63882	480.38986	-688.49408	-322.30209	933.66949	-854.5351	-657.58441	977.53729	-866.78717	-783.03168	478.42529	-836.45007	-841.46582	536.27606	-887.30579	-731.79138	188.5247	-1124.5571	-807.09308	226.80698	-1172.8379
315	1.565	-435.32724	87.169807	-814.8797	-454.18689	88.423599	-762.125	-219.9781	495.67218	-759.87909	-291.34726	479.19797	-689.28375	-317.79797	935.96143	-853.5199	-653.37421	979.78687	-859.57355	-785.57617	483.48138	-819.16705	-843.87585	541.16895	-869.81836	-734.90845	198.52486	-1114.0104	-810.03955	238.18533	-1161.5839
316	1.57	-434.98871	87.18782	-815.22827	-454.20959	88.319145	-762.72522	-218.3748	494.63135	-760.46216	-290.13809	478.36386	-690.21063	-313.50839	938.15778	-852.56744	-649.07593	982.49609	-852.35217	-787.21454	488.94598	-801.24719	-844.92938	547.35217	-852.51935	-737.59528	208.92558	-1102.9316	-812.92786	249.89017	-1149.6233
317	1.575	-434.75409	87.197601	-815.58795	-453.05588	90.095871	-759.84296	-216.53876	494.02005	-760.99988	-289.03812	477.96573	-691.38104	-309.05298	940.39844	-851.58514	-644.83234	985.30292	-845.4375	-791.46423	503.25681	-758.13281	-845.61896	553.88098	-834.83429	-740.0235	219.95329	-1091.2043	-815.29993	262.23074	-1137.5453
318	1.58	-434.45349	87.176346	-815.86792	-452.65897	89.780594	-761.38141	-215.29749	493.29285	-761.5957	-288.01587	477.65686	-692.86835	-304.71091	942.44824	-851.06323	-640.57574	988.22192	-838.52515	-791.1795	509.24008	-739.32013	-845.70337	559.55298	-817.0553	-742.11426	231.58772	-1079.3633	-817.42334	275.16855	-1125.2168
319	1.585	-434.36697	87.145988	-816.08765	-452.79892	90.363396	-760.20764	-213.588	492.9632	-762.93964	-286.89722	477.42291	-694.75305	-300.73669	944.40662	-850.96906	-636.35626	991.19409	-831.77673	-787.31647	508.06226	-747.40552	-845.56201	566.78271	-797.61798	-744.23126	244.17729	-1067.9045	-819.13391	288.96143	-1112.7756
320	1.59	-434.25055	87.117767	-816.27185	-452.41766	90.374847	-761.03235	-212.38618	492.51926	-764.97363	-285.71146	477.28448	-696.83777	-296.71783	946.21887	-850.85931	-631.98273	994.53186	-824.52832	-785.46667	514.15723	-728.51166	-844.74908	573.89832	-780.55963	-744.82318	257.95615	-1056.8771	-820.35016	303.50406	-1100.2656
321	1.595	-434.25525	87.06649	-816.59973	-452.99667	89.235931	-764.09723	-211.75334	492.02939	-767.81567	-284.24802	477.25989	-699.21228	-292.66342	948.04236	-851.13116	-627.4657	998.10022	-816.1532	-783.20593	520.67926	-710.27594	-843.21136	581.58868	-759.67102	-744.26599	272.96878	-1045.9314	-820.85876	318.73605	-1087.5013
322	1.6	-434.26297	87.069794	-816.86865	-453.12604	89.478004	-764.24634	-211.54625	491.76923	-771.48438	-282.47357	477.3558	-701.89276	-288.87488	949.86755	-851.83289	-622.85321	1001.9386	-808.15167	-775.4856	531.16327	-692.51648	-841.7356	588.40186	-740.12183	-742.91193	288.98367	-1034.7151	-820.42603	334.66586	-1074.5742
323	1.605	-434.22974	87.067322	-817.15558	-452.48865	89.778542	-764.84521	-211.47812	491.66824	-776.03149	-280.53339	477.54617	-704.7373	-285.39691	951.57214	-852.95367	-618.09393	1006.3783	-798.66779	-777.22778	534.63354	-674.56842	-839.79932	596.30322	-719.85828	-740.6886	305.37564	-1023.4476	-819.33765	351.04391	-1061.3334
324	1.61	-434.2128	87.05497	-817.39722	-452.23645	90.026039	-765.00311	-211.82321	491.76962	-781.05048	-278.44217	477.87622	-707.8465	-282.44547	953.14093	-854.43915	-613.04913	1011.0389	-789.49298	-773.17072	541.59473	-656.61237	-837.24304	604.22455	-699.42645	-737.82123	322.24213	-1011.8751	-817.66425	367.99084	-1047.7048
325	1.615	-434.2403	87.162392	-817.67023	-451.44165	90.280731	-766.17786	-213.12743	491.77237	-786.28748	-276.30859	478.18686	-711.11304	-279.29178	954.90283	-856.32745	-607.69708	1015.9823	-780.03473	-768.62891	548.56458	-638.50574	-833.75427	612.80743	-678.87463	-734.79846	339.28864	-999.76013	-815.09528	385.36038	-1033.5096
326	1.62	-434.27655	87.344223	-817.95526	-451.73038	90.838821	-765.36646	-214.44926	492.2262	-791.60944	-274.28497	478.5661	-714.65674	-276.65662	956.41235	-858.54883	-601.94446	1020.8293	-770.73334	-763.52875	555.79633	-620.39709	-830.17157	623.52563	-651.66235	-732.07892	356.46503	-986.82098	-812.41193	403.40741	-1019.1652
327	1.625	-434.31592	87.513611	-818.1123	-451.15619	91.087502	-766.2948	-216.05804	492.78088	-797.05804	-272.56433	478.87631	-718.20721	-274.51276	958.07263	-861.02045	-595.69073	1026.2012	-760.78424	-757.85034	563.34045	-602.01355	-824.4071	630.48035	-638.21008	-729.414	373.45721	-973.62927	-809.75214	421.81104	-1004.1498
